<svg viewBox="0 0 125.000000 124.000000"
    xml:space="preserve">
    <g transform="translate(0.000000,124.000000) scale(0.100000,-0.100000)"
        fill="#000000" stroke="none">
        <path
            d="M355 1140 c-326 -109 -356 -560 -47 -712 62 -31 74 -33 167 -33 96 0
105 2 173 36 l72 35 25 -26 c17 -17 25 -37 25 -60 0 -30 14 -49 133 -167 106
-106 138 -133 160 -133 39 0 81 24 95 55 27 59 19 72 -121 212 -118 119 -137
133 -167 133 -23 0 -43 8 -60 25 l-26 25 35 72 c34 68 36 77 36 173 0 93 -2
105 -33 167 -40 82 -122 159 -202 189 -79 31 -189 35 -265 9z m240 -104 c206
-98 228 -383 38 -504 -192 -122 -443 13 -442 238 0 103 36 176 114 236 78 59
201 72 290 30z" />
    </g>
</svg>